<?xml version="1.0" encoding="utf-8"?><svg xmlns="http://www.w3.org/2000/svg" xmlns:xlink="http://www.w3.org/1999/xlink" width="576" height="250" preserveAspectRatio="xMidYMid" viewBox="0 0 576 250" style="z-index:1;margin-right:-2px;display:block;background-repeat-y:initial;background-repeat-x:initial;animation-play-state:paused" ><g transform="translate(288,125) scale(1,-1) translate(-288,-125)" style="transform:matrix(1, 0, 0, -1, 0, 250);animation-play-state:paused" ><linearGradient id="lg-0.23441021254587202" x1="0" x2="1" y1="0" y2="0" style="animation-play-state:paused" ><stop stop-color="#135589" offset="0" style="animation-play-state:paused" ></stop>

  
<stop stop-color="#135589" offset="1" style="animation-play-state:paused" ></stop></linearGradient>
<path d="M 0 0 L 0 182.402 Q 72 210.957 144 177.397 T 288 161.738 T 432 163.266 T 576 170.475 L 576 0 Z" fill="url(#lg-0.23441021254587202)" opacity="0.4" style="opacity:0.4;animation-play-state:paused" ></path>
<path d="M 0 0 L 0 181.982 Q 72 202.44 144 170.603 T 288 173.834 T 432 176.048 T 576 181.384 L 576 0 Z" fill="url(#lg-0.23441021254587202)" opacity="0.4" style="opacity:0.4;animation-play-state:paused" ></path>
<path d="M 0 0 L 0 174.756 Q 72 206.5 144 172.588 T 288 175.854 T 432 180.297 T 576 180.582 L 576 0 Z" fill="url(#lg-0.23441021254587202)" opacity="0.4" style="opacity:0.4;animation-play-state:paused" ></path>
<path d="M 0 0 L 0 177.731 Q 72 197.716 144 175.122 T 288 183.829 T 432 184.626 T 576 183.482 L 576 0 Z" fill="url(#lg-0.23441021254587202)" opacity="0.4" style="opacity:0.4;animation-play-state:paused" ></path>
<path d="M 0 0 L 0 172.89 Q 72 207.149 144 176.645 T 288 183.663 T 432 184.723 T 576 185.661 L 576 0 Z" fill="url(#lg-0.23441021254587202)" opacity="0.4" style="opacity:0.4;animation-play-state:paused" ></path></g></svg>