<?xml version="1.0" encoding="utf-8"?><svg xmlns="http://www.w3.org/2000/svg" xmlns:xlink="http://www.w3.org/1999/xlink" width="1366" height="250" preserveAspectRatio="xMidYMid" viewBox="0 0 1366 250" style="z-index:1;margin-right:-2px;display:block;background-repeat-y:initial;background-repeat-x:initial;animation-play-state:paused" ><g transform="translate(683,125) scale(1,-1) translate(-683,-125)" style="transform:matrix(1, 0, 0, -1, 0, 250);animation-play-state:paused" ><linearGradient id="lg-0.2778366151776219" x1="0" x2="1" y1="0" y2="0" style="animation-play-state:paused" ><stop stop-color="#135589" offset="0" style="animation-play-state:paused" ></stop>

  
<stop stop-color="#135589" offset="1" style="animation-play-state:paused" ></stop></linearGradient>
<path d="M 0 0 L 0 165.357 Q 136.6 189.633 273.2 172.896 T 546.4 151.388 T 819.6 179.121 T 1092.8 152.159 T 1366 183.767 L 1366 0 Z" fill="url(#lg-0.2778366151776219)" opacity="0.4" style="opacity:0.4;animation-play-state:paused" ></path>
<path d="M 0 0 L 0 164.898 Q 136.6 192.393 273.2 175.496 T 546.4 163.765 T 819.6 170.956 T 1092.8 168.6 T 1366 181.061 L 1366 0 Z" fill="url(#lg-0.2778366151776219)" opacity="0.4" style="opacity:0.4;animation-play-state:paused" ></path>
<path d="M 0 0 L 0 171.877 Q 136.6 197.582 273.2 168.057 T 546.4 181.982 T 819.6 185.472 T 1092.8 163.078 T 1366 170.519 L 1366 0 Z" fill="url(#lg-0.2778366151776219)" opacity="0.4" style="opacity:0.4;animation-play-state:paused" ></path>
<path d="M 0 0 L 0 169.625 Q 136.6 206.604 273.2 168.997 T 546.4 178.833 T 819.6 157.606 T 1092.8 170.509 T 1366 161.129 L 1366 0 Z" fill="url(#lg-0.2778366151776219)" opacity="0.4" style="opacity:0.4;animation-play-state:paused" ></path>
<path d="M 0 0 L 0 163.844 Q 136.6 196.096 273.2 167.864 T 546.4 169.747 T 819.6 166.456 T 1092.8 163.592 T 1366 169.706 L 1366 0 Z" fill="url(#lg-0.2778366151776219)" opacity="0.4" style="opacity:0.4;animation-play-state:paused" ></path></g></svg>