<?xml version="1.0" encoding="utf-8"?><svg xmlns="http://www.w3.org/2000/svg" xmlns:xlink="http://www.w3.org/1999/xlink" width="576" height="250" preserveAspectRatio="xMidYMid" viewBox="0 0 576 250" style="z-index:1;margin-right:-2px;display:block;background-repeat-y:initial;background-repeat-x:initial;animation-play-state:paused" ><g transform="translate(288,125) scale(1,1) translate(-288,-125)" style="transform:matrix(1, 0, 0, 1, 0, 0);animation-play-state:paused" ><linearGradient id="lg-0.9151115921660924" x1="0" x2="1" y1="0" y2="0" style="animation-play-state:paused" ><stop stop-color="#135589" offset="0" style="animation-play-state:paused" ></stop>

  
<stop stop-color="#135589" offset="1" style="animation-play-state:paused" ></stop></linearGradient>
<path d="M 0 0 L 0 182.508 Q 72 198.317 144 172.693 T 288 172.242 T 432 177.393 T 576 166.185 L 576 0 Z" fill="url(#lg-0.9151115921660924)" opacity="0.4" style="opacity:0.4;animation-play-state:paused" ></path>
<path d="M 0 0 L 0 178.639 Q 72 215.456 144 178.771 T 288 171.969 T 432 174.916 T 576 169.661 L 576 0 Z" fill="url(#lg-0.9151115921660924)" opacity="0.4" style="opacity:0.4;animation-play-state:paused" ></path>
<path d="M 0 0 L 0 179.833 Q 72 195.98 144 168.884 T 288 172.614 T 432 174.479 T 576 165.44 L 576 0 Z" fill="url(#lg-0.9151115921660924)" opacity="0.4" style="opacity:0.4;animation-play-state:paused" ></path>
<path d="M 0 0 L 0 167.025 Q 72 196.575 144 178.181 T 288 172.419 T 432 178.552 T 576 167.328 L 576 0 Z" fill="url(#lg-0.9151115921660924)" opacity="0.4" style="opacity:0.4;animation-play-state:paused" ></path>
<path d="M 0 0 L 0 170.176 Q 72 189.959 144 170.15 T 288 180.302 T 432 173.294 T 576 177.044 L 576 0 Z" fill="url(#lg-0.9151115921660924)" opacity="0.4" style="opacity:0.4;animation-play-state:paused" ></path></g></svg>