<svg id="svg" version="1.1" xmlns="http://www.w3.org/2000/svg" xmlns:xlink="http://www.w3.org/1999/xlink" width="400" height="117.27748691099477" viewBox="0, 0, 400,117.27748691099477"><g id="svgg"><path id="path0" d="M376.667 35.509 C 376.254 35.582,375.524 35.648,375.044 35.654 C 374.564 35.661,373.852 35.741,373.461 35.832 C 373.070 35.923,371.887 36.152,370.833 36.340 C 369.779 36.529,368.729 36.746,368.500 36.824 C 368.271 36.902,367.521 37.128,366.833 37.328 C 364.356 38.046,362.747 38.553,362.583 38.668 C 362.492 38.732,362.267 38.826,362.083 38.876 C 360.373 39.343,354.257 42.166,352.720 43.199 C 352.337 43.456,351.990 43.667,351.950 43.667 C 351.726 43.667,346.641 46.898,345.583 47.712 C 345.492 47.782,344.665 48.387,343.747 49.055 C 342.828 49.724,341.928 50.395,341.747 50.547 C 341.565 50.699,340.779 51.322,340.000 51.931 C 339.221 52.541,338.302 53.293,337.958 53.603 C 337.161 54.321,336.542 54.335,335.083 53.667 C 333.586 52.981,333.749 52.892,331.644 55.542 C 330.606 56.848,329.715 57.954,329.664 58.000 C 329.244 58.378,327.407 60.813,326.835 61.750 C 325.506 63.925,323.614 65.993,321.784 67.271 C 319.732 68.704,317.363 70.475,316.333 71.345 C 315.343 72.183,311.533 75.072,310.802 75.540 C 310.556 75.698,310.098 75.971,309.783 76.148 C 309.469 76.324,309.033 76.569,308.815 76.693 C 308.596 76.816,308.379 76.954,308.333 77.000 C 307.975 77.358,303.209 79.714,301.667 80.296 C 298.419 81.520,297.693 81.733,294.500 82.395 C 290.370 83.251,286.477 83.328,281.936 82.646 C 279.061 82.213,276.223 81.460,274.000 80.539 C 273.771 80.444,273.133 80.196,272.583 79.989 C 271.244 79.483,270.108 78.912,268.996 78.185 C 268.490 77.854,267.927 77.489,267.746 77.373 C 267.439 77.176,266.386 76.658,264.167 75.611 C 263.662 75.373,262.762 74.903,262.167 74.566 C 260.298 73.508,253.489 70.167,253.203 70.167 C 253.107 70.167,253.003 70.110,252.972 70.042 C 252.913 69.909,251.650 69.406,250.651 69.118 C 250.067 68.949,249.131 69.137,247.875 69.673 C 244.142 71.268,240.491 72.184,234.667 72.988 C 232.164 73.333,229.423 73.560,227.833 73.553 C 225.998 73.545,222.229 73.318,221.417 73.167 C 220.958 73.081,219.758 72.890,218.750 72.741 C 217.742 72.593,215.615 72.137,214.024 71.727 C 211.076 70.969,210.462 70.774,208.625 70.011 C 208.419 69.925,207.762 69.694,207.167 69.497 C 206.571 69.300,205.746 68.984,205.333 68.795 C 204.921 68.606,204.027 68.196,203.347 67.884 L 202.111 67.316 200.869 68.075 C 200.186 68.492,199.561 68.833,199.481 68.833 C 199.400 68.833,199.333 68.900,199.333 68.981 C 199.333 69.062,199.202 69.169,199.042 69.220 C 198.725 69.321,197.801 69.855,197.667 70.016 C 197.583 70.117,193.368 72.758,192.750 73.098 C 192.567 73.199,192.135 73.443,191.792 73.641 C 191.448 73.838,190.885 74.157,190.542 74.350 C 187.982 75.783,186.838 76.433,186.333 76.744 C 185.629 77.178,178.670 80.573,176.500 81.542 C 175.000 82.211,170.345 84.144,169.750 84.344 C 169.383 84.467,169.012 84.628,168.925 84.701 C 168.838 84.774,168.631 84.833,168.464 84.833 C 168.298 84.833,168.032 84.904,167.873 84.991 C 167.073 85.427,161.946 87.149,158.875 88.014 C 158.577 88.098,158.071 88.242,157.750 88.333 C 157.429 88.425,156.923 88.569,156.625 88.654 C 155.588 88.950,153.245 89.525,152.500 89.667 C 152.087 89.746,151.112 89.966,150.333 90.157 C 143.232 91.898,133.967 92.686,132.583 91.666 C 132.371 91.509,127.361 89.010,126.917 88.839 C 126.733 88.769,126.377 88.626,126.125 88.522 C 125.873 88.418,125.498 88.268,125.292 88.189 C 125.085 88.110,124.729 87.966,124.500 87.869 C 122.939 87.210,119.989 86.114,118.583 85.671 C 117.667 85.382,116.767 85.082,116.583 85.006 C 115.660 84.621,115.043 84.458,109.917 83.246 C 105.458 82.192,100.095 81.664,93.917 81.671 C 86.365 81.680,82.139 82.196,74.833 84.001 C 74.512 84.081,73.875 84.233,73.417 84.339 C 72.572 84.534,71.856 84.755,71.250 85.005 C 71.067 85.080,69.642 85.557,68.083 86.064 C 65.063 87.047,60.469 88.597,59.917 88.819 C 59.443 89.010,58.563 89.281,57.500 89.564 C 56.996 89.698,55.833 90.032,54.917 90.308 C 52.509 91.030,49.834 91.740,47.875 92.176 C 47.485 92.262,46.848 92.404,46.458 92.491 C 46.069 92.578,45.450 92.720,45.083 92.807 C 44.717 92.895,44.011 93.049,43.515 93.151 C 43.019 93.252,42.340 93.409,42.004 93.499 C 41.669 93.589,40.950 93.728,40.406 93.809 C 39.862 93.889,37.992 94.186,36.250 94.468 C 29.523 95.560,29.295 95.554,26.848 94.222 C 24.260 92.813,24.768 92.899,22.022 93.407 C 20.681 93.655,18.871 94.001,18.000 94.174 C 16.597 94.454,14.269 94.888,11.750 95.338 C 9.404 95.757,7.653 95.989,6.792 95.994 C 6.054 95.999,5.833 96.057,5.833 96.250 C 5.833 96.469,6.796 96.500,13.500 96.500 C 20.204 96.500,21.167 96.469,21.167 96.250 C 21.167 96.039,21.546 96.000,23.583 96.000 C 25.083 96.000,26.000 95.937,26.000 95.833 C 26.000 95.733,26.694 95.667,27.750 95.667 C 28.806 95.667,29.500 95.733,29.500 95.833 C 29.500 95.925,29.650 96.000,29.833 96.000 C 30.019 96.000,30.167 96.111,30.167 96.250 C 30.167 96.389,30.315 96.500,30.500 96.500 C 30.683 96.500,30.833 96.575,30.833 96.667 C 30.833 96.758,31.021 96.833,31.250 96.833 C 31.479 96.833,31.667 96.908,31.667 97.000 C 31.667 97.092,31.892 97.167,32.167 97.167 C 32.442 97.167,32.667 97.242,32.667 97.333 C 32.667 97.425,32.817 97.500,33.000 97.500 C 33.183 97.500,33.333 97.575,33.333 97.667 C 33.333 97.758,33.483 97.833,33.667 97.833 C 33.850 97.833,34.000 97.908,34.000 98.000 C 34.000 98.092,34.150 98.167,34.333 98.167 C 34.517 98.167,34.667 98.242,34.667 98.333 C 34.667 98.425,34.854 98.500,35.083 98.500 C 35.313 98.500,35.500 98.575,35.500 98.667 C 35.500 98.758,35.725 98.833,36.000 98.833 C 36.275 98.833,36.500 98.908,36.500 99.000 C 36.500 99.092,36.725 99.167,37.000 99.167 C 37.275 99.167,37.500 99.242,37.500 99.333 C 37.500 99.425,37.725 99.500,38.000 99.500 C 38.275 99.500,38.500 99.575,38.500 99.667 C 38.500 99.758,38.762 99.833,39.083 99.833 C 39.491 99.833,39.667 99.909,39.667 100.083 C 39.667 100.250,39.833 100.333,40.167 100.333 C 40.442 100.333,40.667 100.408,40.667 100.500 C 40.667 100.592,40.967 100.667,41.333 100.667 C 41.700 100.667,42.000 100.742,42.000 100.833 C 42.000 100.925,42.337 101.000,42.750 101.000 C 43.163 101.000,43.500 101.075,43.500 101.167 C 43.500 101.258,43.725 101.333,44.000 101.333 C 44.275 101.333,44.500 101.408,44.500 101.500 C 44.500 101.592,44.871 101.667,45.323 101.667 C 45.776 101.667,46.193 101.742,46.250 101.833 C 46.307 101.925,46.874 102.000,47.510 102.000 C 48.170 102.000,48.667 102.072,48.667 102.167 C 48.667 102.263,49.194 102.333,49.917 102.333 C 50.639 102.333,51.167 102.404,51.167 102.500 C 51.167 102.607,52.889 102.667,56.000 102.667 C 59.111 102.667,60.833 102.607,60.833 102.500 C 60.833 102.402,61.417 102.333,62.250 102.333 C 63.083 102.333,63.667 102.265,63.667 102.167 C 63.667 102.073,64.139 102.000,64.750 102.000 C 65.361 102.000,65.833 101.927,65.833 101.833 C 65.833 101.742,66.208 101.667,66.667 101.667 C 67.125 101.667,67.500 101.592,67.500 101.500 C 67.500 101.408,67.912 101.333,68.417 101.333 C 68.921 101.333,69.333 101.258,69.333 101.167 C 69.333 101.075,69.708 101.000,70.167 101.000 C 70.625 101.000,71.000 100.925,71.000 100.833 C 71.000 100.742,71.412 100.667,71.917 100.667 C 72.421 100.667,72.833 100.592,72.833 100.500 C 72.833 100.407,73.278 100.333,73.833 100.333 C 74.611 100.333,74.833 100.278,74.833 100.083 C 74.833 99.891,75.046 99.833,75.750 99.833 C 76.254 99.833,76.667 99.758,76.667 99.667 C 76.667 99.575,77.042 99.500,77.500 99.500 C 77.958 99.500,78.333 99.425,78.333 99.333 C 78.333 99.242,78.746 99.167,79.250 99.167 C 79.754 99.167,80.167 99.092,80.167 99.000 C 80.167 98.907,80.611 98.833,81.167 98.833 C 81.722 98.833,82.167 98.759,82.167 98.667 C 82.167 98.570,82.694 98.500,83.417 98.500 C 84.139 98.500,84.667 98.430,84.667 98.333 C 84.667 98.241,85.111 98.167,85.667 98.167 C 86.222 98.167,86.667 98.093,86.667 98.000 C 86.667 97.906,87.139 97.833,87.750 97.833 C 88.361 97.833,88.833 97.761,88.833 97.667 C 88.833 97.573,89.306 97.500,89.917 97.500 C 90.528 97.500,91.000 97.427,91.000 97.333 C 91.000 97.241,91.444 97.167,92.000 97.167 C 92.556 97.167,93.000 97.093,93.000 97.000 C 93.000 96.904,93.528 96.833,94.250 96.833 C 94.972 96.833,95.500 96.763,95.500 96.667 C 95.500 96.569,96.057 96.500,96.839 96.500 C 97.875 96.500,98.199 96.444,98.273 96.250 C 98.345 96.061,98.650 96.000,99.518 96.000 C 100.173 96.000,100.667 95.928,100.667 95.833 C 100.667 95.737,101.194 95.667,101.917 95.667 C 102.639 95.667,103.167 95.596,103.167 95.500 C 103.167 95.404,103.694 95.333,104.417 95.333 C 105.139 95.333,105.667 95.263,105.667 95.167 C 105.667 95.069,106.222 95.000,107.000 95.000 C 107.778 95.000,108.333 94.931,108.333 94.833 C 108.333 94.732,109.083 94.667,110.250 94.667 C 111.417 94.667,112.167 94.601,112.167 94.500 C 112.167 94.401,112.806 94.333,113.750 94.333 C 114.694 94.333,115.333 94.266,115.333 94.167 C 115.333 94.067,115.972 94.000,116.917 94.000 C 117.861 94.000,118.500 93.933,118.500 93.833 C 118.500 93.733,119.194 93.667,120.250 93.667 C 121.306 93.667,122.000 93.601,122.000 93.500 C 122.000 93.398,122.806 93.333,124.083 93.333 C 125.361 93.333,126.167 93.269,126.167 93.167 C 126.167 93.063,127.083 93.000,128.583 93.000 C 130.620 93.000,131.000 92.961,131.000 92.750 C 131.000 92.544,131.306 92.500,132.750 92.500 C 134.194 92.500,134.500 92.544,134.500 92.750 C 134.500 92.906,134.657 93.000,134.917 93.000 C 135.146 93.000,135.333 93.075,135.333 93.167 C 135.333 93.258,135.483 93.333,135.667 93.333 C 135.850 93.333,136.000 93.408,136.000 93.500 C 136.000 93.592,136.150 93.667,136.333 93.667 C 136.517 93.667,136.667 93.742,136.667 93.833 C 136.667 93.925,136.817 94.000,137.000 94.000 C 137.183 94.000,137.333 94.075,137.333 94.167 C 137.333 94.258,137.483 94.333,137.667 94.333 C 137.850 94.333,138.000 94.408,138.000 94.500 C 138.000 94.592,138.262 94.667,138.583 94.667 C 138.904 94.667,139.167 94.742,139.167 94.833 C 139.167 94.925,139.317 95.000,139.500 95.000 C 139.683 95.000,139.833 95.075,139.833 95.167 C 139.833 95.258,140.058 95.333,140.333 95.333 C 140.608 95.333,140.833 95.408,140.833 95.500 C 140.833 95.592,140.983 95.667,141.167 95.667 C 141.350 95.667,141.500 95.742,141.500 95.833 C 141.500 95.925,141.762 96.000,142.083 96.000 C 142.491 96.000,142.667 96.075,142.667 96.250 C 142.667 96.417,142.833 96.500,143.167 96.500 C 143.442 96.500,143.667 96.575,143.667 96.667 C 143.667 96.758,143.892 96.833,144.167 96.833 C 144.442 96.833,144.667 96.908,144.667 97.000 C 144.667 97.092,144.892 97.167,145.167 97.167 C 145.442 97.167,145.667 97.242,145.667 97.333 C 145.667 97.425,146.004 97.500,146.417 97.500 C 146.829 97.500,147.167 97.575,147.167 97.667 C 147.167 97.758,147.392 97.833,147.667 97.833 C 147.942 97.833,148.167 97.908,148.167 98.000 C 148.167 98.092,148.467 98.167,148.833 98.167 C 149.200 98.167,149.500 98.242,149.500 98.333 C 149.500 98.427,149.972 98.500,150.583 98.500 C 151.194 98.500,151.667 98.573,151.667 98.667 C 151.667 98.758,152.042 98.833,152.500 98.833 C 152.958 98.833,153.333 98.908,153.333 99.000 C 153.333 99.092,153.746 99.167,154.250 99.167 C 154.754 99.167,155.167 99.242,155.167 99.333 C 155.167 99.435,155.917 99.500,157.083 99.500 C 158.250 99.500,159.000 99.565,159.000 99.667 C 159.000 99.773,160.500 99.833,163.167 99.833 C 165.833 99.833,167.333 99.773,167.333 99.667 C 167.333 99.570,167.861 99.500,168.583 99.500 C 169.306 99.500,169.833 99.430,169.833 99.333 C 169.833 99.237,170.361 99.167,171.083 99.167 C 171.806 99.167,172.333 99.096,172.333 99.000 C 172.333 98.908,172.708 98.833,173.167 98.833 C 173.625 98.833,174.000 98.758,174.000 98.667 C 174.000 98.575,174.375 98.500,174.833 98.500 C 175.292 98.500,175.667 98.425,175.667 98.333 C 175.667 98.242,176.079 98.167,176.583 98.167 C 177.088 98.167,177.500 98.092,177.500 98.000 C 177.500 97.908,177.800 97.833,178.167 97.833 C 178.533 97.833,178.833 97.758,178.833 97.667 C 178.833 97.575,179.096 97.500,179.417 97.500 C 179.737 97.500,180.000 97.425,180.000 97.333 C 180.000 97.242,180.225 97.167,180.500 97.167 C 180.775 97.167,181.000 97.092,181.000 97.000 C 181.000 96.908,181.225 96.833,181.500 96.833 C 181.775 96.833,182.000 96.758,182.000 96.667 C 182.000 96.575,182.225 96.500,182.500 96.500 C 182.833 96.500,183.000 96.417,183.000 96.250 C 183.000 96.075,183.176 96.000,183.583 96.000 C 183.904 96.000,184.167 95.925,184.167 95.833 C 184.167 95.742,184.317 95.667,184.500 95.667 C 184.683 95.667,184.833 95.592,184.833 95.500 C 184.833 95.408,184.983 95.333,185.167 95.333 C 185.350 95.333,185.500 95.258,185.500 95.167 C 185.500 95.075,185.725 95.000,186.000 95.000 C 186.275 95.000,186.500 94.925,186.500 94.833 C 186.500 94.742,186.688 94.667,186.917 94.667 C 187.146 94.667,187.333 94.592,187.333 94.500 C 187.333 94.408,187.558 94.333,187.833 94.333 C 188.108 94.333,188.333 94.258,188.333 94.167 C 188.333 94.075,188.483 94.000,188.667 94.000 C 188.850 94.000,189.000 93.925,189.000 93.833 C 189.000 93.742,189.150 93.667,189.333 93.667 C 189.517 93.667,189.667 93.592,189.667 93.500 C 189.667 93.408,189.817 93.333,190.000 93.333 C 190.183 93.333,190.333 93.258,190.333 93.167 C 190.333 93.075,190.486 93.000,190.672 93.000 C 190.858 93.000,191.054 92.888,191.106 92.750 C 191.159 92.612,191.344 92.500,191.518 92.500 C 191.691 92.500,191.833 92.425,191.833 92.333 C 191.833 92.242,191.967 92.167,192.130 92.167 C 192.293 92.167,192.535 92.017,192.667 91.833 C 192.799 91.650,193.040 91.500,193.203 91.500 C 193.367 91.500,193.500 91.425,193.500 91.333 C 193.500 91.242,193.650 91.167,193.833 91.167 C 194.017 91.167,194.167 91.092,194.167 91.000 C 194.167 90.908,194.354 90.833,194.583 90.833 C 194.813 90.833,195.000 90.758,195.000 90.667 C 195.000 90.575,195.133 90.500,195.297 90.500 C 195.460 90.500,195.701 90.350,195.833 90.167 C 195.965 89.983,196.190 89.833,196.333 89.833 C 196.476 89.833,196.701 89.683,196.833 89.500 C 196.965 89.317,197.207 89.167,197.370 89.167 C 197.533 89.167,197.667 89.054,197.667 88.917 C 197.667 88.768,197.820 88.667,198.047 88.667 C 198.255 88.667,198.535 88.517,198.667 88.333 C 198.799 88.150,199.024 88.000,199.167 88.000 C 199.310 88.000,199.535 87.850,199.667 87.667 C 199.799 87.483,200.040 87.333,200.203 87.333 C 200.367 87.333,200.500 87.258,200.500 87.167 C 200.500 87.075,200.633 87.000,200.797 87.000 C 200.960 87.000,201.201 86.850,201.333 86.667 C 201.465 86.483,201.745 86.333,201.953 86.333 C 202.162 86.333,202.333 86.258,202.333 86.167 C 202.333 86.075,202.467 86.000,202.630 86.000 C 202.793 86.000,203.035 85.850,203.167 85.667 C 203.299 85.483,203.540 85.333,203.703 85.333 C 203.867 85.333,204.000 85.253,204.000 85.155 C 204.000 84.904,204.432 84.500,204.701 84.500 C 204.825 84.500,205.035 84.350,205.167 84.167 C 205.299 83.983,205.578 83.833,205.787 83.833 C 205.996 83.833,206.167 83.758,206.167 83.667 C 206.167 83.575,206.317 83.500,206.500 83.500 C 206.683 83.500,206.833 83.425,206.833 83.333 C 206.833 83.242,206.983 83.167,207.167 83.167 C 207.350 83.167,207.500 83.092,207.500 83.000 C 207.500 82.908,207.650 82.833,207.833 82.833 C 208.017 82.833,208.167 82.758,208.167 82.667 C 208.167 82.575,208.317 82.500,208.500 82.500 C 208.683 82.500,208.833 82.425,208.833 82.333 C 208.833 82.242,209.021 82.167,209.250 82.167 C 209.479 82.167,209.667 82.092,209.667 82.000 C 209.667 81.908,209.817 81.833,210.000 81.833 C 210.183 81.833,210.333 81.758,210.333 81.667 C 210.333 81.575,210.483 81.500,210.667 81.500 C 210.850 81.500,211.000 81.420,211.000 81.321 C 211.000 81.056,211.439 80.667,211.738 80.667 C 211.882 80.667,212.000 80.592,212.000 80.500 C 212.000 80.408,212.150 80.333,212.333 80.333 C 212.517 80.333,212.667 80.258,212.667 80.167 C 212.667 80.075,212.929 80.000,213.250 80.000 C 213.571 80.000,213.833 79.925,213.833 79.833 C 213.833 79.742,213.983 79.667,214.167 79.667 C 214.350 79.667,214.500 79.592,214.500 79.500 C 214.500 79.408,214.650 79.333,214.833 79.333 C 215.017 79.333,215.167 79.258,215.167 79.167 C 215.167 79.075,215.317 79.000,215.500 79.000 C 215.683 79.000,215.833 78.925,215.833 78.833 C 215.833 78.742,215.983 78.667,216.167 78.667 C 216.350 78.667,216.500 78.592,216.500 78.500 C 216.500 78.408,216.762 78.333,217.083 78.333 C 217.404 78.333,217.667 78.258,217.667 78.167 C 217.667 78.075,217.817 78.000,218.000 78.000 C 218.183 78.000,218.333 77.925,218.333 77.833 C 218.333 77.742,218.558 77.667,218.833 77.667 C 219.167 77.667,219.333 77.583,219.333 77.417 C 219.333 77.242,219.509 77.167,219.917 77.167 C 220.237 77.167,220.500 77.092,220.500 77.000 C 220.500 76.908,220.725 76.833,221.000 76.833 C 221.275 76.833,221.500 76.758,221.500 76.667 C 221.500 76.575,221.725 76.500,222.000 76.500 C 222.275 76.500,222.500 76.425,222.500 76.333 C 222.500 76.242,222.725 76.167,223.000 76.167 C 223.275 76.167,223.500 76.092,223.500 76.000 C 223.500 75.908,223.762 75.833,224.083 75.833 C 224.404 75.833,224.667 75.758,224.667 75.667 C 224.667 75.575,224.967 75.500,225.333 75.500 C 225.700 75.500,226.000 75.425,226.000 75.333 C 226.000 75.242,226.300 75.167,226.667 75.167 C 227.033 75.167,227.333 75.092,227.333 75.000 C 227.333 74.908,227.671 74.833,228.083 74.833 C 228.496 74.833,228.833 74.758,228.833 74.667 C 228.833 74.575,229.208 74.500,229.667 74.500 C 230.125 74.500,230.500 74.425,230.500 74.333 C 230.500 74.239,230.972 74.167,231.583 74.167 C 232.194 74.167,232.667 74.094,232.667 74.000 C 232.667 73.907,233.111 73.833,233.667 73.833 C 234.444 73.833,234.667 73.778,234.667 73.583 C 234.667 73.387,234.898 73.333,235.750 73.333 C 236.361 73.333,236.833 73.261,236.833 73.167 C 236.833 73.059,239.028 73.000,243.083 73.000 C 247.139 73.000,249.333 73.059,249.333 73.167 C 249.333 73.265,249.917 73.333,250.750 73.333 C 251.898 73.333,252.167 73.381,252.167 73.583 C 252.167 73.783,252.417 73.833,253.417 73.833 C 254.139 73.833,254.667 73.904,254.667 74.000 C 254.667 74.092,254.967 74.167,255.333 74.167 C 255.700 74.167,256.000 74.242,256.000 74.333 C 256.000 74.425,256.412 74.500,256.917 74.500 C 257.421 74.500,257.833 74.575,257.833 74.667 C 257.833 74.758,258.133 74.833,258.500 74.833 C 258.867 74.833,259.167 74.908,259.167 75.000 C 259.167 75.092,259.467 75.167,259.833 75.167 C 260.200 75.167,260.500 75.242,260.500 75.333 C 260.500 75.425,260.762 75.500,261.083 75.500 C 261.404 75.500,261.667 75.575,261.667 75.667 C 261.667 75.758,261.892 75.833,262.167 75.833 C 262.442 75.833,262.667 75.908,262.667 76.000 C 262.667 76.092,262.967 76.167,263.333 76.167 C 263.700 76.167,264.000 76.242,264.000 76.333 C 264.000 76.425,264.262 76.500,264.583 76.500 C 264.904 76.500,265.167 76.575,265.167 76.667 C 265.167 76.758,265.392 76.833,265.667 76.833 C 265.942 76.833,266.167 76.908,266.167 77.000 C 266.167 77.092,266.317 77.167,266.500 77.167 C 266.685 77.167,266.833 77.278,266.833 77.417 C 266.833 77.554,266.975 77.667,267.148 77.667 C 267.321 77.667,267.640 77.891,267.856 78.165 C 268.073 78.439,268.312 78.664,268.388 78.665 C 268.464 78.666,268.814 78.967,269.167 79.333 C 269.519 79.700,269.896 80.000,270.003 80.000 C 270.221 80.000,271.667 81.471,271.667 81.693 C 271.667 81.770,271.823 81.833,272.013 81.833 C 272.204 81.833,272.648 82.133,273.000 82.500 C 273.352 82.867,273.729 83.167,273.837 83.167 C 273.945 83.167,274.243 83.392,274.500 83.667 C 274.757 83.942,275.087 84.167,275.234 84.167 C 275.380 84.167,275.500 84.242,275.500 84.333 C 275.500 84.425,275.612 84.500,275.750 84.500 C 275.887 84.500,276.000 84.575,276.000 84.667 C 276.000 84.758,276.150 84.833,276.333 84.833 C 276.517 84.833,276.667 84.914,276.667 85.012 C 276.667 85.277,277.105 85.667,277.405 85.667 C 277.549 85.667,277.667 85.742,277.667 85.833 C 277.667 85.925,277.817 86.000,278.000 86.000 C 278.183 86.000,278.333 86.075,278.333 86.167 C 278.333 86.258,278.483 86.333,278.667 86.333 C 278.850 86.333,279.000 86.408,279.000 86.500 C 279.000 86.592,279.188 86.667,279.417 86.667 C 279.646 86.667,279.833 86.742,279.833 86.833 C 279.833 86.925,279.983 87.000,280.167 87.000 C 280.350 87.000,280.500 87.075,280.500 87.167 C 280.500 87.258,280.725 87.333,281.000 87.333 C 281.275 87.333,281.500 87.408,281.500 87.500 C 281.500 87.592,281.650 87.667,281.833 87.667 C 282.017 87.667,282.167 87.742,282.167 87.833 C 282.167 87.925,282.434 88.000,282.760 88.000 C 283.113 88.000,283.311 88.067,283.250 88.167 C 283.189 88.266,283.387 88.333,283.740 88.333 C 284.066 88.333,284.333 88.408,284.333 88.500 C 284.333 88.592,284.708 88.667,285.167 88.667 C 285.796 88.667,286.000 88.728,286.000 88.917 C 286.000 89.109,286.213 89.167,286.917 89.167 C 287.421 89.167,287.833 89.242,287.833 89.333 C 287.833 89.438,288.972 89.500,290.917 89.500 C 292.861 89.500,294.000 89.438,294.000 89.333 C 294.000 89.239,294.472 89.167,295.083 89.167 C 295.935 89.167,296.167 89.113,296.167 88.917 C 296.167 88.736,296.352 88.667,296.833 88.667 C 297.200 88.667,297.500 88.592,297.500 88.500 C 297.500 88.408,297.762 88.333,298.083 88.333 C 298.404 88.333,298.667 88.258,298.667 88.167 C 298.667 88.075,298.892 88.000,299.167 88.000 C 299.442 88.000,299.667 87.925,299.667 87.833 C 299.667 87.742,299.892 87.667,300.167 87.667 C 300.442 87.667,300.667 87.592,300.667 87.500 C 300.667 87.408,300.817 87.333,301.000 87.333 C 301.183 87.333,301.333 87.258,301.333 87.167 C 301.333 87.075,301.521 87.000,301.750 87.000 C 301.979 87.000,302.167 86.925,302.167 86.833 C 302.167 86.742,302.317 86.667,302.500 86.667 C 302.683 86.667,302.833 86.592,302.833 86.500 C 302.833 86.408,302.983 86.333,303.167 86.333 C 303.350 86.333,303.500 86.258,303.500 86.167 C 303.500 86.075,303.650 86.000,303.833 86.000 C 304.017 86.000,304.167 85.925,304.167 85.833 C 304.167 85.742,304.317 85.667,304.500 85.667 C 304.683 85.667,304.833 85.592,304.833 85.500 C 304.833 85.408,304.965 85.333,305.127 85.333 C 305.288 85.333,305.644 85.072,305.918 84.754 C 306.192 84.435,306.531 84.172,306.672 84.170 C 306.812 84.168,307.035 84.017,307.167 83.833 C 307.299 83.650,307.524 83.500,307.667 83.500 C 307.810 83.500,308.035 83.350,308.167 83.167 C 308.299 82.983,308.540 82.833,308.703 82.833 C 308.867 82.833,309.000 82.758,309.000 82.667 C 309.000 82.575,309.082 82.500,309.183 82.500 C 309.284 82.500,309.576 82.275,309.833 82.000 C 310.090 81.725,310.420 81.500,310.567 81.500 C 310.713 81.500,310.833 81.421,310.833 81.325 C 310.833 81.140,312.592 79.369,313.886 78.250 C 314.311 77.883,314.660 77.525,314.662 77.455 C 314.667 77.308,316.445 75.500,316.584 75.500 C 316.801 75.500,318.167 73.984,318.167 73.744 C 318.167 73.598,318.542 73.113,319.000 72.667 C 319.458 72.220,319.833 71.770,319.833 71.666 C 319.833 71.465,320.238 71.000,320.412 71.000 C 320.631 71.000,321.333 70.168,321.333 69.908 C 321.333 69.757,321.558 69.424,321.833 69.167 C 322.108 68.910,322.333 68.610,322.333 68.500 C 322.333 68.390,322.558 68.090,322.833 67.833 C 323.108 67.576,323.333 67.264,323.333 67.139 C 323.333 67.015,323.521 66.772,323.750 66.600 C 323.979 66.427,324.167 66.183,324.167 66.056 C 324.167 65.782,325.576 64.333,325.842 64.333 C 325.943 64.333,326.314 64.033,326.667 63.667 C 327.019 63.300,327.431 63.000,327.582 63.000 C 327.848 63.000,328.333 62.628,328.333 62.424 C 328.333 62.245,329.820 60.833,330.009 60.833 C 330.110 60.833,330.481 60.533,330.833 60.167 C 331.186 59.800,331.521 59.500,331.578 59.500 C 331.713 59.500,332.500 58.714,332.500 58.579 C 332.500 58.405,332.965 58.000,333.166 58.000 C 333.270 58.000,333.720 57.625,334.167 57.167 C 334.613 56.708,335.027 56.333,335.086 56.333 C 335.145 56.333,335.481 56.033,335.833 55.667 C 336.458 55.016,337.667 54.687,337.667 55.167 C 337.667 55.258,337.887 55.333,338.157 55.333 C 338.426 55.333,338.693 55.408,338.750 55.500 C 338.807 55.592,339.074 55.667,339.343 55.667 C 339.613 55.667,339.833 55.742,339.833 55.833 C 339.833 55.925,339.983 56.000,340.167 56.000 C 340.350 56.000,340.500 56.075,340.500 56.167 C 340.500 56.258,340.725 56.333,341.000 56.333 C 341.275 56.333,341.500 56.408,341.500 56.500 C 341.500 56.592,341.762 56.667,342.083 56.667 C 342.404 56.667,342.667 56.742,342.667 56.833 C 342.667 56.925,342.967 57.000,343.333 57.000 C 343.700 57.000,344.000 57.075,344.000 57.167 C 344.000 57.258,344.300 57.333,344.667 57.333 C 345.033 57.333,345.333 57.408,345.333 57.500 C 345.333 57.592,345.746 57.667,346.250 57.667 C 346.754 57.667,347.167 57.742,347.167 57.833 C 347.167 57.929,347.667 58.000,348.333 58.000 C 349.000 58.000,349.500 58.071,349.500 58.167 C 349.500 58.274,351.361 58.333,354.750 58.333 C 358.139 58.333,360.000 58.274,360.000 58.167 C 360.000 58.070,360.528 58.000,361.250 58.000 C 361.972 58.000,362.500 57.930,362.500 57.833 C 362.500 57.742,362.800 57.667,363.167 57.667 C 363.533 57.667,363.833 57.592,363.833 57.500 C 363.833 57.408,364.171 57.333,364.583 57.333 C 364.996 57.333,365.333 57.258,365.333 57.167 C 365.333 57.075,365.633 57.000,366.000 57.000 C 366.367 57.000,366.667 56.925,366.667 56.833 C 366.667 56.742,366.892 56.667,367.167 56.667 C 367.442 56.667,367.667 56.592,367.667 56.500 C 367.667 56.408,367.929 56.333,368.250 56.333 C 368.571 56.333,368.833 56.258,368.833 56.167 C 368.833 56.075,369.058 56.000,369.333 56.000 C 369.608 56.000,369.833 55.925,369.833 55.833 C 369.833 55.742,370.058 55.667,370.333 55.667 C 370.608 55.667,370.833 55.592,370.833 55.500 C 370.833 55.408,370.983 55.333,371.167 55.333 C 371.350 55.333,371.500 55.258,371.500 55.167 C 371.500 55.075,371.652 55.000,371.839 55.000 C 372.025 55.000,372.220 54.887,372.273 54.750 C 372.326 54.612,372.511 54.500,372.684 54.500 C 372.858 54.500,373.000 54.425,373.000 54.333 C 373.000 54.242,373.150 54.167,373.333 54.167 C 373.517 54.167,373.667 54.092,373.667 54.000 C 373.667 53.908,373.875 53.833,374.130 53.833 C 374.402 53.833,374.692 53.696,374.833 53.500 C 374.965 53.317,375.207 53.167,375.370 53.167 C 375.533 53.167,375.667 53.092,375.667 53.000 C 375.667 52.908,375.854 52.833,376.083 52.833 C 376.313 52.833,376.500 52.758,376.500 52.667 C 376.500 52.575,376.650 52.500,376.833 52.500 C 377.017 52.500,377.167 52.425,377.167 52.333 C 377.167 52.242,377.300 52.167,377.463 52.167 C 377.626 52.167,377.868 52.017,378.000 51.833 C 378.132 51.650,378.374 51.500,378.537 51.500 C 378.700 51.500,378.833 51.425,378.833 51.333 C 378.833 51.242,378.983 51.167,379.167 51.167 C 379.352 51.167,379.500 51.056,379.500 50.917 C 379.500 50.779,379.613 50.667,379.750 50.667 C 379.887 50.667,380.000 50.592,380.000 50.500 C 380.000 50.408,380.150 50.333,380.333 50.333 C 380.517 50.333,380.667 50.258,380.667 50.167 C 380.667 50.075,380.787 50.000,380.933 50.000 C 381.080 50.000,381.410 49.775,381.667 49.500 C 381.924 49.225,382.237 49.000,382.363 49.000 C 382.490 49.000,382.701 48.850,382.833 48.667 C 382.965 48.483,383.226 48.333,383.412 48.332 C 383.598 48.331,383.927 48.106,384.144 47.832 C 384.360 47.558,384.679 47.333,384.852 47.333 C 385.025 47.333,385.167 47.253,385.167 47.155 C 385.167 46.917,385.594 46.500,385.838 46.500 C 385.945 46.500,386.243 46.275,386.500 46.000 C 386.757 45.725,387.019 45.500,387.083 45.500 C 387.147 45.500,387.410 45.275,387.667 45.000 C 387.924 44.725,388.220 44.500,388.324 44.500 C 388.519 44.500,389.333 43.761,389.333 43.585 C 389.333 43.461,390.459 42.333,390.583 42.333 C 390.705 42.333,391.833 43.459,391.833 43.580 C 391.833 43.701,394.301 46.167,394.422 46.167 C 394.551 46.167,395.333 46.960,395.333 47.092 C 395.333 47.151,395.558 47.410,395.833 47.667 C 396.108 47.924,396.333 48.221,396.333 48.328 C 396.333 48.434,396.708 48.887,397.167 49.333 C 397.625 49.780,398.000 50.262,398.000 50.406 C 398.000 50.549,398.113 50.667,398.250 50.667 C 398.387 50.667,398.500 50.744,398.500 50.839 C 398.500 51.063,399.604 52.167,399.828 52.167 C 400.130 52.167,400.056 45.005,399.751 44.667 C 399.613 44.516,398.831 43.347,398.011 42.071 C 395.695 38.463,395.338 37.980,395.094 38.123 C 394.975 38.193,393.993 39.094,392.911 40.125 C 390.650 42.280,390.586 42.299,389.394 41.204 C 388.389 40.279,385.373 37.924,384.417 37.316 C 384.050 37.083,383.207 36.542,382.544 36.113 L 381.337 35.333 379.377 35.354 C 378.299 35.366,377.079 35.435,376.667 35.509 M-0.000 96.725 L 0.000 97.500 0.750 97.500 C 1.163 97.500,1.500 97.425,1.500 97.333 C 1.500 97.242,1.912 97.167,2.417 97.167 C 2.921 97.167,3.333 97.092,3.333 97.000 C 3.333 96.907,3.778 96.833,4.333 96.833 C 5.222 96.833,5.333 96.796,5.333 96.500 C 5.333 96.199,5.222 96.167,4.192 96.167 C 3.565 96.167,2.365 96.118,1.526 96.058 L -0.000 95.950 -0.000 96.725 " stroke="none" fill="#9cb4cc" fill-rule="evenodd"></path><path id="path1" d="M363.917 31.439 C 354.703 32.400,345.202 38.890,334.794 51.333 C 333.907 52.393,333.870 52.417,333.080 52.417 L 332.273 52.417 331.010 54.600 C 327.922 59.940,323.597 65.090,319.486 68.326 C 318.989 68.716,318.336 69.234,318.034 69.476 C 316.012 71.098,309.194 74.737,305.632 76.097 C 304.798 76.415,303.883 76.777,303.600 76.902 C 302.161 77.534,297.632 79.136,296.000 79.590 C 292.562 80.547,287.933 80.924,284.798 80.504 C 284.130 80.414,282.196 80.185,280.500 79.994 C 275.983 79.486,272.526 78.807,269.833 77.897 C 267.815 77.216,267.795 77.273,269.700 78.288 C 283.724 85.762,299.401 83.847,313.833 72.898 C 320.432 67.893,321.810 66.857,322.526 66.368 C 323.706 65.563,324.501 64.674,325.990 62.495 C 327.169 60.769,330.709 56.070,331.009 55.833 C 331.067 55.788,331.370 55.413,331.682 55.000 C 333.575 52.501,333.448 52.557,335.284 53.417 C 336.849 54.149,336.886 54.148,337.831 53.292 C 344.898 46.896,357.387 39.607,364.750 37.581 C 365.208 37.455,366.371 37.121,367.333 36.838 C 371.534 35.605,379.004 34.701,381.102 35.171 C 382.438 35.470,387.956 39.260,389.583 40.995 C 390.570 42.047,390.486 42.079,392.824 39.766 C 393.991 38.611,395.073 37.667,395.228 37.667 C 395.484 37.667,399.333 43.272,399.333 43.645 C 399.333 43.720,399.483 43.917,399.667 44.083 C 399.995 44.380,400.000 44.374,400.000 43.706 C 400.000 43.333,399.939 43.003,399.864 42.972 C 399.790 42.942,399.026 41.867,398.166 40.583 C 396.309 37.809,396.051 37.500,395.591 37.500 C 395.399 37.500,395.093 37.400,394.912 37.278 C 394.577 37.051,394.185 36.939,391.627 36.337 C 389.906 35.933,384.066 35.167,382.703 35.167 C 381.678 35.167,380.282 34.730,378.583 33.880 C 374.844 32.007,368.535 30.957,363.917 31.439 M213.083 61.735 C 210.814 62.510,205.728 64.912,203.583 66.222 C 202.172 67.084,202.042 67.059,198.025 65.143 L 194.467 63.445 193.108 63.652 C 192.361 63.765,191.375 63.924,190.917 64.005 C 188.950 64.352,187.807 64.537,181.583 65.511 C 179.200 65.883,175.975 66.373,174.417 66.599 C 170.429 67.177,169.604 67.357,164.417 68.778 C 161.763 69.504,159.061 70.167,156.417 70.739 C 155.317 70.977,154.154 71.246,153.833 71.336 C 151.606 71.963,140.587 73.732,133.167 74.655 C 131.654 74.843,129.854 75.073,129.167 75.165 C 128.479 75.258,125.329 75.637,122.167 76.008 C 119.004 76.378,115.104 76.866,113.500 77.091 C 111.896 77.316,109.458 77.652,108.083 77.838 C 106.708 78.024,105.133 78.244,104.583 78.328 C 104.033 78.412,102.983 78.563,102.250 78.665 C 101.517 78.767,100.504 78.919,100.000 79.002 C 99.496 79.086,98.596 79.234,98.000 79.333 C 96.814 79.528,88.529 80.859,86.000 81.260 C 82.530 81.811,81.115 82.058,77.917 82.671 C 75.037 83.224,68.876 84.381,62.833 85.504 C 61.871 85.682,60.708 85.904,60.250 85.997 C 59.140 86.221,56.523 86.725,54.167 87.168 C 53.112 87.367,51.350 87.704,50.250 87.918 C 49.150 88.132,47.387 88.469,46.333 88.666 C 44.062 89.092,41.411 89.602,40.250 89.836 C 39.356 90.017,36.509 90.552,32.750 91.246 C 31.467 91.483,30.079 91.747,29.667 91.834 C 24.829 92.849,24.790 92.846,22.250 91.175 L 20.917 90.298 19.583 90.393 C 18.850 90.445,17.125 90.637,15.750 90.818 C 11.641 91.360,9.447 91.652,5.500 92.183 C 3.438 92.460,1.356 92.730,0.875 92.783 L -0.000 92.880 0.000 94.254 L 0.000 95.629 0.741 95.740 C 1.914 95.916,7.505 95.884,8.333 95.697 C 8.746 95.604,9.515 95.446,10.042 95.347 C 10.569 95.248,11.431 95.086,11.958 94.986 C 12.485 94.887,13.217 94.742,13.583 94.664 C 13.950 94.586,14.700 94.442,15.250 94.345 C 15.800 94.247,17.075 94.013,18.083 93.825 C 25.209 92.498,24.543 92.521,26.279 93.538 C 28.815 95.022,29.318 95.194,30.590 95.010 C 35.443 94.309,41.988 93.193,44.000 92.724 C 45.329 92.414,46.979 92.043,47.667 91.900 C 48.354 91.756,49.329 91.526,49.833 91.388 C 50.337 91.250,50.975 91.079,51.250 91.006 C 54.036 90.273,59.441 88.654,61.583 87.911 C 63.050 87.402,65.862 86.459,67.833 85.814 C 69.804 85.169,71.567 84.583,71.750 84.511 C 72.843 84.081,77.455 83.006,80.333 82.510 C 81.387 82.329,82.887 82.069,83.667 81.934 C 92.562 80.387,104.768 81.285,115.333 84.264 C 119.264 85.373,126.248 88.131,130.746 90.351 L 134.177 92.045 135.713 91.943 C 138.004 91.792,140.612 91.534,141.833 91.339 C 142.429 91.243,143.179 91.123,143.500 91.072 C 143.821 91.020,145.021 90.830,146.167 90.649 C 149.089 90.188,156.311 88.515,158.500 87.792 C 158.912 87.656,159.813 87.381,160.500 87.181 C 164.341 86.065,171.207 83.538,174.646 81.977 C 175.047 81.794,175.722 81.508,176.146 81.339 C 177.730 80.709,184.872 77.228,186.417 76.332 C 187.020 75.982,189.842 74.386,191.619 73.390 C 192.277 73.021,193.671 72.165,196.417 70.445 C 201.467 67.280,201.659 67.171,202.199 67.169 C 202.446 67.168,203.346 67.497,204.199 67.900 C 205.052 68.304,206.200 68.799,206.750 69.000 C 207.300 69.201,207.900 69.428,208.083 69.504 C 210.439 70.481,215.267 71.842,217.812 72.247 C 218.694 72.387,219.792 72.574,220.250 72.662 C 223.913 73.365,231.062 73.366,235.250 72.665 C 235.800 72.573,236.925 72.388,237.750 72.253 C 239.719 71.932,243.824 70.839,245.917 70.078 C 250.370 68.458,250.125 68.506,251.386 69.017 C 251.861 69.210,252.400 69.427,252.583 69.500 C 254.083 70.096,260.737 73.386,263.083 74.691 C 265.257 75.901,268.108 77.402,267.992 77.277 C 267.941 77.222,267.590 76.969,267.212 76.714 C 266.833 76.459,265.221 74.975,263.629 73.417 C 259.098 68.982,256.047 66.333,255.469 66.333 C 255.132 66.333,253.186 67.168,251.902 67.862 C 250.458 68.644,250.009 68.634,247.830 67.777 C 245.040 66.678,239.005 64.811,236.167 64.169 C 235.846 64.096,234.946 63.882,234.167 63.693 C 228.024 62.199,215.208 61.009,213.083 61.735 " stroke="none" fill="#648cb3" fill-rule="evenodd"></path><path id="path2" d="M0.000 46.000 L 0.000 92.000 0.510 92.000 C 0.790 92.000,1.334 91.931,1.718 91.846 C 2.102 91.762,2.979 91.607,3.667 91.502 C 4.354 91.398,5.329 91.243,5.833 91.158 C 6.337 91.072,8.287 90.774,10.167 90.495 C 12.046 90.215,14.708 89.802,16.083 89.576 C 19.169 89.070,19.115 89.069,20.159 89.611 L 21.015 90.055 22.799 89.782 C 23.781 89.632,25.795 89.318,27.275 89.085 C 28.756 88.852,30.518 88.585,31.192 88.492 C 33.553 88.165,35.766 87.814,38.500 87.332 C 39.004 87.244,40.467 87.014,41.750 86.822 C 44.026 86.481,45.782 86.190,51.583 85.190 C 53.142 84.921,54.679 84.657,55.000 84.603 C 55.321 84.549,56.033 84.422,56.583 84.321 C 57.846 84.090,58.236 84.022,63.000 83.195 C 65.154 82.821,67.817 82.356,68.917 82.160 C 74.724 81.130,75.658 80.966,76.500 80.830 C 77.004 80.749,77.829 80.603,78.333 80.507 C 78.837 80.411,79.662 80.262,80.167 80.175 C 80.671 80.088,81.533 79.937,82.083 79.839 C 83.231 79.636,84.876 79.361,86.083 79.171 C 86.542 79.099,88.004 78.851,89.333 78.619 C 91.535 78.235,93.341 77.952,96.583 77.482 C 97.225 77.389,98.162 77.245,98.667 77.163 C 99.171 77.080,100.090 76.935,100.708 76.840 C 101.944 76.650,102.876 76.504,106.000 76.011 C 108.877 75.558,111.546 75.160,112.833 74.993 C 113.429 74.916,115.342 74.657,117.083 74.419 C 120.842 73.905,122.346 73.704,123.917 73.509 C 124.558 73.429,125.308 73.321,125.583 73.269 C 125.858 73.217,127.246 73.023,128.667 72.838 C 130.087 72.653,131.775 72.427,132.417 72.335 C 133.058 72.243,134.783 72.016,136.250 71.831 C 137.717 71.645,139.367 71.424,139.917 71.339 C 140.467 71.254,141.517 71.106,142.250 71.010 C 146.347 70.474,147.532 70.318,148.625 70.167 C 149.290 70.075,150.415 69.920,151.125 69.822 C 151.835 69.724,152.904 69.572,153.500 69.484 C 155.808 69.144,160.639 68.462,161.750 68.319 C 162.392 68.236,163.404 68.095,164.000 68.006 C 164.596 67.917,165.571 67.771,166.167 67.683 C 166.762 67.594,167.850 67.396,168.583 67.242 C 169.317 67.088,170.217 66.900,170.583 66.823 C 170.950 66.747,171.550 66.616,171.917 66.531 C 172.936 66.296,181.794 63.301,184.333 62.332 C 188.599 60.705,188.100 60.729,191.259 62.011 C 194.166 63.190,194.884 63.304,197.107 62.942 C 198.011 62.795,199.950 62.521,201.417 62.334 C 202.883 62.148,204.608 61.924,205.250 61.839 C 205.892 61.753,207.879 61.601,209.667 61.501 C 212.876 61.322,213.797 61.184,216.083 60.541 C 219.165 59.673,220.605 59.316,221.712 59.145 C 222.374 59.043,223.292 58.896,223.750 58.819 C 227.707 58.150,234.250 58.147,237.667 58.813 C 238.079 58.893,238.979 59.048,239.667 59.157 C 240.742 59.327,241.990 59.641,243.667 60.165 C 243.896 60.236,244.421 60.388,244.833 60.501 C 248.675 61.560,252.249 63.295,254.521 65.203 C 255.249 65.815,255.336 65.845,256.104 65.744 C 257.133 65.610,259.203 66.862,266.167 71.830 C 270.689 75.056,271.459 75.550,274.083 76.912 C 280.293 80.134,286.928 80.934,294.167 79.335 C 294.579 79.244,295.479 79.053,296.167 78.911 C 303.283 77.442,311.272 72.245,318.083 64.655 C 318.450 64.246,319.402 63.199,320.199 62.329 C 321.615 60.782,322.682 59.465,325.252 56.083 C 326.973 53.820,326.896 53.922,327.083 53.631 C 328.995 50.657,329.208 50.516,330.671 51.252 C 332.369 52.107,332.244 52.182,333.910 49.292 C 334.715 47.894,335.683 46.225,336.060 45.583 C 336.438 44.942,336.822 44.286,336.915 44.127 C 338.462 41.463,342.380 35.763,343.990 33.833 C 344.411 33.329,345.067 32.504,345.450 32.000 C 353.759 21.037,365.935 15.989,375.181 19.673 C 380.763 21.896,386.056 25.952,390.583 31.476 C 391.133 32.146,392.000 33.195,392.510 33.806 C 393.019 34.417,393.613 35.179,393.828 35.500 C 394.419 36.380,395.033 37.000,395.312 37.000 C 395.449 37.000,395.866 37.146,396.239 37.324 C 396.612 37.502,397.488 37.838,398.185 38.070 C 398.883 38.303,399.577 38.540,399.727 38.598 C 399.979 38.694,400.000 37.210,400.000 19.351 L 400.000 0.000 200.000 0.000 L 0.000 0.000 0.000 46.000 " stroke="none" fill="#226494" fill-rule="evenodd"></path><path id="path3" d="M366.500 18.450 C 359.145 19.465,350.954 24.738,345.450 32.000 C 345.067 32.504,344.411 33.329,343.990 33.833 C 342.380 35.763,338.462 41.463,336.915 44.127 C 336.822 44.286,336.438 44.942,336.060 45.583 C 335.683 46.225,334.715 47.894,333.910 49.292 C 332.244 52.182,332.369 52.107,330.671 51.252 C 329.208 50.516,328.995 50.657,327.083 53.631 C 326.896 53.922,326.973 53.820,325.252 56.083 C 322.682 59.465,321.615 60.782,320.199 62.329 C 319.402 63.199,318.450 64.246,318.083 64.655 C 311.272 72.245,303.283 77.442,296.167 78.911 C 295.479 79.053,294.579 79.244,294.167 79.335 C 286.928 80.934,280.293 80.134,274.083 76.912 C 271.459 75.550,270.689 75.056,266.167 71.830 C 259.203 66.862,257.133 65.610,256.104 65.744 C 255.336 65.845,255.249 65.815,254.521 65.203 C 252.249 63.295,248.675 61.560,244.833 60.501 C 244.421 60.388,243.896 60.236,243.667 60.165 C 241.990 59.641,240.742 59.327,239.667 59.157 C 238.979 59.048,238.079 58.893,237.667 58.813 C 234.250 58.147,227.707 58.150,223.750 58.819 C 223.292 58.896,222.374 59.043,221.712 59.145 C 220.605 59.316,219.165 59.673,216.083 60.541 C 213.797 61.184,212.876 61.322,209.667 61.501 C 207.879 61.601,205.892 61.753,205.250 61.839 C 204.608 61.924,202.883 62.148,201.417 62.334 C 199.950 62.521,198.011 62.795,197.107 62.942 C 194.884 63.304,194.166 63.190,191.259 62.011 C 188.100 60.729,188.599 60.705,184.333 62.332 C 181.794 63.301,172.936 66.296,171.917 66.531 C 171.550 66.616,170.950 66.747,170.583 66.823 C 170.217 66.900,169.317 67.088,168.583 67.242 C 167.850 67.396,166.762 67.594,166.167 67.683 C 165.571 67.771,164.596 67.917,164.000 68.006 C 163.404 68.095,162.392 68.236,161.750 68.319 C 160.716 68.452,156.929 68.987,153.333 69.508 C 152.646 69.608,151.596 69.757,151.000 69.839 C 150.404 69.921,149.354 70.066,148.667 70.161 C 147.536 70.317,146.361 70.473,142.250 71.010 C 141.517 71.106,140.467 71.254,139.917 71.339 C 139.367 71.424,137.717 71.645,136.250 71.831 C 134.783 72.016,133.058 72.243,132.417 72.335 C 131.775 72.427,130.087 72.653,128.667 72.838 C 127.246 73.023,125.858 73.217,125.583 73.269 C 125.308 73.321,124.558 73.429,123.917 73.509 C 122.346 73.704,120.842 73.905,117.083 74.419 C 115.342 74.657,113.429 74.916,112.833 74.993 C 111.546 75.160,108.877 75.558,106.000 76.011 C 102.876 76.504,101.944 76.650,100.708 76.840 C 100.090 76.935,99.171 77.080,98.667 77.163 C 98.162 77.245,97.225 77.389,96.583 77.482 C 93.341 77.952,91.535 78.235,89.333 78.619 C 88.004 78.851,86.542 79.099,86.083 79.171 C 84.876 79.361,83.231 79.636,82.083 79.839 C 81.533 79.937,80.671 80.088,80.167 80.175 C 79.662 80.262,78.837 80.411,78.333 80.507 C 77.829 80.603,77.004 80.749,76.500 80.830 C 75.658 80.966,74.724 81.130,68.917 82.160 C 67.817 82.356,65.154 82.821,63.000 83.195 C 58.236 84.022,57.846 84.090,56.583 84.321 C 56.033 84.422,55.321 84.549,55.000 84.603 C 54.679 84.657,53.142 84.921,51.583 85.190 C 45.782 86.190,44.026 86.481,41.750 86.822 C 40.467 87.014,39.004 87.244,38.500 87.332 C 35.766 87.814,33.553 88.165,31.192 88.492 C 30.518 88.585,28.756 88.852,27.275 89.085 C 25.795 89.318,23.781 89.632,22.799 89.782 L 21.015 90.055 20.159 89.611 C 19.115 89.069,19.169 89.070,16.083 89.576 C 14.708 89.802,12.046 90.215,10.167 90.495 C 8.287 90.774,6.337 91.072,5.833 91.158 C 5.329 91.243,4.354 91.398,3.667 91.502 C 2.979 91.607,2.102 91.762,1.718 91.846 C 1.334 91.931,0.790 92.000,0.510 92.000 C 0.070 92.000,0.000 92.060,0.000 92.440 C 0.000 92.958,-0.416 92.977,5.500 92.183 C 9.447 91.652,11.641 91.360,15.750 90.818 C 17.125 90.637,18.850 90.445,19.583 90.393 L 20.917 90.298 22.250 91.175 C 24.790 92.846,24.829 92.849,29.667 91.834 C 30.079 91.747,31.467 91.483,32.750 91.246 C 36.509 90.552,39.356 90.017,40.250 89.836 C 41.411 89.602,44.062 89.092,46.333 88.666 C 47.387 88.469,49.150 88.132,50.250 87.918 C 51.350 87.704,53.112 87.367,54.167 87.168 C 56.523 86.725,59.140 86.221,60.250 85.997 C 60.708 85.904,61.871 85.682,62.833 85.504 C 68.876 84.381,75.037 83.224,77.917 82.671 C 81.115 82.058,82.530 81.811,86.000 81.260 C 88.529 80.859,96.814 79.528,98.000 79.333 C 98.596 79.234,99.496 79.086,100.000 79.002 C 100.504 78.919,101.517 78.767,102.250 78.665 C 102.983 78.563,104.033 78.412,104.583 78.328 C 105.133 78.244,106.708 78.024,108.083 77.838 C 109.458 77.652,111.896 77.316,113.500 77.091 C 115.104 76.866,119.004 76.378,122.167 76.008 C 125.329 75.637,128.479 75.258,129.167 75.165 C 129.854 75.073,131.654 74.843,133.167 74.655 C 140.587 73.732,151.606 71.963,153.833 71.336 C 154.154 71.246,155.317 70.977,156.417 70.739 C 159.061 70.167,161.763 69.504,164.417 68.778 C 169.604 67.357,170.429 67.177,174.417 66.599 C 175.975 66.373,179.200 65.883,181.583 65.511 C 187.807 64.537,188.950 64.352,190.917 64.005 C 191.375 63.924,192.361 63.765,193.108 63.652 L 194.467 63.445 198.025 65.143 C 202.042 67.059,202.172 67.084,203.583 66.222 C 205.918 64.796,211.178 62.341,213.250 61.710 C 215.534 61.014,228.016 62.197,234.167 63.693 C 234.946 63.882,235.846 64.096,236.167 64.169 C 239.005 64.811,245.040 66.678,247.830 67.777 C 250.009 68.634,250.458 68.644,251.902 67.862 C 253.186 67.168,255.132 66.333,255.469 66.333 C 256.047 66.333,259.098 68.982,263.629 73.417 C 265.221 74.975,266.880 76.490,267.317 76.784 C 269.211 78.058,274.302 79.297,280.500 79.994 C 282.196 80.185,284.130 80.414,284.798 80.504 C 287.933 80.924,292.562 80.547,296.000 79.590 C 297.632 79.136,302.161 77.534,303.600 76.902 C 303.883 76.777,304.798 76.415,305.632 76.097 C 309.194 74.737,316.012 71.098,318.034 69.476 C 318.336 69.234,318.989 68.716,319.486 68.326 C 323.597 65.090,327.922 59.940,331.010 54.600 L 332.273 52.417 333.080 52.417 C 333.870 52.417,333.907 52.393,334.794 51.333 C 343.047 41.466,349.552 36.197,357.167 33.212 C 364.049 30.513,372.380 30.773,378.583 33.880 C 380.282 34.730,381.678 35.167,382.703 35.167 C 385.573 35.167,393.926 36.611,394.912 37.278 C 395.093 37.400,395.399 37.500,395.591 37.500 C 396.056 37.500,396.325 37.825,398.179 40.619 C 399.043 41.922,399.806 42.991,399.875 42.994 C 399.944 42.997,400.000 42.034,400.000 40.854 L 400.000 38.707 399.542 38.538 C 399.290 38.445,398.596 38.204,398.000 38.002 C 397.404 37.801,396.612 37.493,396.239 37.318 C 395.866 37.143,395.449 37.000,395.312 37.000 C 395.033 37.000,394.419 36.380,393.828 35.500 C 393.613 35.179,393.019 34.417,392.510 33.806 C 392.000 33.195,391.133 32.146,390.583 31.476 C 385.290 25.018,377.582 19.658,372.396 18.830 C 371.780 18.732,371.220 18.616,371.152 18.574 C 370.995 18.477,367.063 18.372,366.500 18.450 " stroke="none" fill="#437ba3" fill-rule="evenodd"></path><path id="path4" d="M376.750 35.173 C 374.274 35.311,369.903 36.084,367.333 36.838 C 366.371 37.121,365.208 37.455,364.750 37.581 C 359.418 39.048,352.386 42.664,344.907 47.786 C 343.458 48.779,338.895 52.329,337.831 53.292 C 336.886 54.148,336.849 54.149,335.284 53.417 C 333.448 52.557,333.575 52.501,331.682 55.000 C 331.370 55.413,331.067 55.788,331.009 55.833 C 330.709 56.070,327.169 60.769,325.990 62.495 C 324.501 64.674,323.706 65.563,322.526 66.368 C 321.810 66.857,320.432 67.893,313.833 72.898 C 302.059 81.831,289.856 84.756,278.000 81.489 C 275.444 80.785,271.505 79.299,270.042 78.486 C 269.560 78.219,268.735 77.760,268.208 77.468 C 267.631 77.147,267.341 77.048,267.479 77.218 C 267.605 77.373,267.777 77.500,267.863 77.500 C 267.948 77.500,268.445 77.790,268.967 78.144 C 270.075 78.895,271.187 79.462,272.583 79.989 C 273.598 80.371,274.034 80.542,274.708 80.822 C 274.915 80.908,275.383 81.068,275.750 81.179 C 276.117 81.289,276.604 81.442,276.833 81.518 C 281.895 83.202,288.924 83.550,294.500 82.395 C 297.693 81.733,298.419 81.520,301.667 80.296 C 303.209 79.714,307.975 77.358,308.333 77.000 C 308.379 76.954,308.596 76.816,308.815 76.693 C 309.033 76.569,309.469 76.324,309.783 76.148 C 310.098 75.971,310.556 75.698,310.802 75.540 C 311.533 75.072,315.343 72.183,316.333 71.345 C 317.363 70.475,319.732 68.704,321.784 67.271 C 323.614 65.993,325.506 63.925,326.835 61.750 C 327.407 60.813,329.244 58.378,329.664 58.000 C 329.715 57.954,330.606 56.848,331.644 55.542 C 333.749 52.892,333.586 52.981,335.083 53.667 C 336.542 54.335,337.161 54.321,337.958 53.603 C 338.302 53.293,339.221 52.541,340.000 51.931 C 340.779 51.322,341.565 50.699,341.747 50.547 C 341.928 50.395,342.828 49.724,343.747 49.055 C 344.665 48.387,345.492 47.782,345.583 47.712 C 346.641 46.898,351.726 43.667,351.950 43.667 C 351.990 43.667,352.337 43.456,352.720 43.199 C 354.257 42.166,360.373 39.343,362.083 38.876 C 362.267 38.826,362.492 38.732,362.583 38.668 C 362.747 38.553,364.356 38.046,366.833 37.328 C 367.521 37.128,368.271 36.902,368.500 36.824 C 368.729 36.746,369.742 36.533,370.750 36.351 C 371.758 36.168,372.808 35.973,373.083 35.917 C 374.047 35.721,376.604 35.492,378.930 35.393 L 381.277 35.293 382.513 36.093 C 383.194 36.532,384.050 37.083,384.417 37.316 C 385.373 37.924,388.389 40.279,389.394 41.204 C 390.586 42.299,390.650 42.280,392.911 40.125 C 393.993 39.094,394.975 38.193,395.094 38.123 C 395.338 37.980,395.698 38.467,398.018 42.083 C 399.644 44.618,400.000 45.078,400.000 44.645 C 400.000 44.502,399.850 44.249,399.667 44.083 C 399.483 43.917,399.333 43.720,399.333 43.645 C 399.333 43.272,395.484 37.667,395.228 37.667 C 395.073 37.667,393.991 38.611,392.824 39.766 C 390.486 42.079,390.570 42.047,389.583 40.995 C 388.822 40.184,385.105 37.353,383.408 36.293 C 381.269 34.956,381.113 34.930,376.750 35.173 M201.083 67.559 C 200.453 67.927,199.063 68.786,196.417 70.445 C 193.671 72.165,192.277 73.021,191.619 73.390 C 189.842 74.386,187.020 75.982,186.417 76.332 C 184.872 77.228,177.730 80.709,176.146 81.339 C 175.722 81.508,175.047 81.794,174.646 81.977 C 171.207 83.538,164.341 86.065,160.500 87.181 C 159.813 87.381,158.912 87.656,158.500 87.792 C 157.794 88.025,157.446 88.126,156.125 88.478 C 153.995 89.046,147.883 90.379,146.167 90.649 C 145.021 90.830,143.821 91.020,143.500 91.072 C 143.179 91.123,142.429 91.243,141.833 91.339 C 140.613 91.534,138.029 91.789,135.667 91.948 C 134.537 92.024,134.213 92.090,134.536 92.178 C 135.871 92.542,145.770 91.276,150.333 90.157 C 151.112 89.966,152.087 89.746,152.500 89.667 C 153.252 89.524,155.645 88.936,156.583 88.664 C 156.858 88.584,157.365 88.440,157.708 88.343 C 158.052 88.246,158.577 88.098,158.875 88.014 C 161.946 87.149,167.073 85.427,167.873 84.991 C 168.032 84.904,168.298 84.833,168.464 84.833 C 168.631 84.833,168.838 84.774,168.925 84.701 C 169.012 84.628,169.383 84.467,169.750 84.344 C 170.345 84.144,175.000 82.211,176.500 81.542 C 178.670 80.573,185.629 77.178,186.333 76.744 C 186.838 76.433,187.982 75.783,190.542 74.350 C 190.885 74.157,191.448 73.838,191.792 73.641 C 192.135 73.443,192.567 73.199,192.750 73.098 C 193.368 72.758,197.583 70.117,197.667 70.016 C 197.801 69.855,198.725 69.321,199.042 69.220 C 199.202 69.169,199.333 69.062,199.333 68.981 C 199.333 68.900,199.400 68.833,199.481 68.833 C 199.561 68.833,200.186 68.492,200.869 68.075 L 202.111 67.316 203.347 67.884 C 204.027 68.196,204.921 68.606,205.333 68.795 C 205.746 68.984,206.571 69.300,207.167 69.497 C 207.762 69.694,208.419 69.925,208.625 70.011 C 210.462 70.774,211.076 70.969,214.024 71.727 C 215.615 72.137,217.742 72.593,218.750 72.741 C 219.758 72.890,220.958 73.081,221.417 73.167 C 222.229 73.318,225.998 73.545,227.833 73.553 C 230.122 73.563,234.344 73.113,238.500 72.417 C 240.169 72.138,244.507 70.996,245.826 70.489 C 246.334 70.294,246.900 70.077,247.083 70.006 C 247.267 69.936,247.604 69.796,247.833 69.695 C 249.088 69.146,250.058 68.947,250.651 69.118 C 251.650 69.406,252.913 69.909,252.972 70.042 C 253.003 70.110,253.107 70.167,253.203 70.167 C 253.489 70.167,260.296 73.507,262.167 74.566 C 262.762 74.903,263.737 75.407,264.333 75.685 C 264.929 75.964,265.635 76.300,265.902 76.430 C 266.169 76.561,266.420 76.635,266.461 76.595 C 266.501 76.555,266.057 76.282,265.475 75.989 C 264.893 75.696,263.817 75.115,263.083 74.697 C 261.130 73.585,254.071 70.092,252.583 69.500 C 252.400 69.427,251.861 69.210,251.386 69.017 C 250.125 68.506,250.370 68.458,245.917 70.078 C 243.824 70.839,239.719 71.932,237.750 72.253 C 236.925 72.388,235.800 72.573,235.250 72.665 C 231.062 73.366,223.913 73.365,220.250 72.662 C 219.792 72.574,218.694 72.387,217.812 72.247 C 215.267 71.842,210.439 70.481,208.083 69.504 C 207.900 69.428,207.300 69.201,206.750 69.000 C 206.200 68.799,205.052 68.304,204.199 67.900 C 202.428 67.063,202.013 67.017,201.083 67.559 M88.000 81.439 C 86.487 81.563,84.575 81.780,83.750 81.921 C 82.925 82.063,81.387 82.328,80.333 82.510 C 77.448 83.007,72.841 84.082,71.750 84.511 C 71.567 84.583,69.804 85.169,67.833 85.814 C 65.862 86.459,63.050 87.402,61.583 87.911 C 59.441 88.654,54.036 90.273,51.250 91.006 C 50.975 91.079,50.337 91.250,49.833 91.388 C 49.329 91.526,48.354 91.756,47.667 91.901 C 46.979 92.045,45.442 92.393,44.250 92.673 C 41.783 93.253,34.026 94.589,31.693 94.836 C 30.075 95.007,29.082 95.318,30.122 95.328 C 30.743 95.334,31.676 95.203,36.167 94.479 C 37.954 94.190,39.862 93.889,40.406 93.809 C 40.950 93.728,41.669 93.589,42.004 93.499 C 42.340 93.409,43.019 93.252,43.515 93.151 C 44.011 93.049,44.717 92.895,45.083 92.807 C 45.450 92.720,46.069 92.578,46.458 92.491 C 46.848 92.404,47.485 92.262,47.875 92.176 C 49.834 91.740,52.509 91.030,54.917 90.308 C 55.833 90.032,56.996 89.698,57.500 89.564 C 58.563 89.281,59.443 89.010,59.917 88.819 C 60.469 88.597,65.063 87.047,68.083 86.064 C 69.642 85.557,71.067 85.080,71.250 85.005 C 71.856 84.755,72.572 84.534,73.417 84.339 C 73.875 84.233,74.512 84.081,74.833 84.001 C 82.139 82.196,86.365 81.680,93.917 81.671 C 100.095 81.664,105.458 82.192,109.917 83.246 C 115.043 84.458,115.660 84.621,116.583 85.006 C 116.767 85.082,117.667 85.382,118.583 85.671 C 119.500 85.960,121.112 86.534,122.167 86.945 C 124.617 87.901,124.663 87.919,125.208 88.144 C 125.460 88.248,125.854 88.408,126.083 88.500 C 126.313 88.592,126.669 88.734,126.875 88.817 C 127.428 89.039,132.389 91.521,132.583 91.673 C 132.675 91.745,133.050 91.854,133.417 91.916 C 136.297 92.405,120.509 85.724,115.333 84.264 C 106.188 81.686,96.819 80.717,88.000 81.439 M22.833 92.919 C 21.810 93.135,17.435 93.957,15.250 94.345 C 14.700 94.442,13.950 94.586,13.583 94.664 C 13.217 94.742,12.504 94.883,12.000 94.976 C 10.034 95.341,9.054 95.534,8.333 95.697 C 7.505 95.884,1.914 95.916,0.741 95.740 C 0.300 95.674,0.000 95.694,0.000 95.789 C 0.000 95.960,2.295 96.167,4.192 96.167 C 4.842 96.167,5.333 96.238,5.333 96.333 C 5.333 96.425,5.446 96.500,5.583 96.500 C 5.721 96.500,5.833 96.388,5.833 96.250 C 5.833 96.057,6.054 95.999,6.792 95.994 C 7.653 95.989,9.404 95.757,11.750 95.338 C 14.269 94.888,16.597 94.454,18.000 94.174 C 23.511 93.075,24.440 92.945,24.939 93.205 C 25.202 93.342,26.149 93.839,27.043 94.310 C 27.938 94.781,28.823 95.167,29.012 95.167 C 29.200 95.167,28.730 94.843,27.968 94.448 C 27.207 94.053,26.246 93.534,25.833 93.294 C 24.858 92.727,24.160 92.640,22.833 92.919 " stroke="none" fill="#84a4c1" fill-rule="evenodd"></path></g></svg>