<?xml version="1.0" encoding="utf-8"?><svg xmlns="http://www.w3.org/2000/svg" xmlns:xlink="http://www.w3.org/1999/xlink" width="1366" height="250" preserveAspectRatio="xMidYMid" viewBox="0 0 1366 250" style="z-index:1;margin-right:-2px;display:block;background-repeat-y:initial;background-repeat-x:initial;animation-play-state:paused" ><g transform="translate(683,125) scale(1,1) translate(-683,-125)" style="transform:matrix(1, 0, 0, 1, 0, 0);animation-play-state:paused" ><linearGradient id="lg-0.611365154253495" x1="0" x2="1" y1="0" y2="0" style="animation-play-state:paused" ><stop stop-color="#135589" offset="0" style="animation-play-state:paused" ></stop>

  
<stop stop-color="#135589" offset="1" style="animation-play-state:paused" ></stop></linearGradient>
<path d="M 0 0 L 0 167.875 Q 136.6 209.219 273.2 179.131 T 546.4 175.878 T 819.6 161.413 T 1092.8 157.168 T 1366 185.91 L 1366 0 Z" fill="url(#lg-0.611365154253495)" opacity="0.4" style="opacity:0.4;animation-play-state:paused" ></path>
<path d="M 0 0 L 0 166.356 Q 136.6 188.215 273.2 163.388 T 546.4 163.718 T 819.6 180.338 T 1092.8 175.573 T 1366 174.409 L 1366 0 Z" fill="url(#lg-0.611365154253495)" opacity="0.4" style="opacity:0.4;animation-play-state:paused" ></path>
<path d="M 0 0 L 0 174.036 Q 136.6 202.002 273.2 169.573 T 546.4 175.723 T 819.6 175.037 T 1092.8 166.96 T 1366 152.193 L 1366 0 Z" fill="url(#lg-0.611365154253495)" opacity="0.4" style="opacity:0.4;animation-play-state:paused" ></path>
<path d="M 0 0 L 0 149.057 Q 136.6 208.193 273.2 179.655 T 546.4 154.486 T 819.6 181.58 T 1092.8 174.932 T 1366 165.203 L 1366 0 Z" fill="url(#lg-0.611365154253495)" opacity="0.4" style="opacity:0.4;animation-play-state:paused" ></path>
<path d="M 0 0 L 0 167.018 Q 136.6 202.487 273.2 186.555 T 546.4 162.941 T 819.6 175.465 T 1092.8 168.923 T 1366 174.566 L 1366 0 Z" fill="url(#lg-0.611365154253495)" opacity="0.4" style="opacity:0.4;animation-play-state:paused" ></path></g></svg>