<?xml version="1.0" encoding="utf-8"?><svg xmlns="http://www.w3.org/2000/svg" xmlns:xlink="http://www.w3.org/1999/xlink" width="1366" height="250" preserveAspectRatio="xMidYMid" viewBox="0 0 1366 250" style="z-index:1;margin-right:-2px;display:block;background-repeat-y:initial;background-repeat-x:initial;animation-play-state:paused" ><g transform="translate(683,125) scale(1,1) translate(-683,-125)" style="transform:matrix(1, 0, 0, 1, 0, 0);animation-play-state:paused" ><linearGradient id="lg-0.22746478992126828" x1="0" x2="1" y1="0" y2="0" style="animation-play-state:paused" ><stop stop-color="#689cc5" offset="0" style="animation-play-state:paused" ></stop>

  
<stop stop-color="#689cc5" offset="1" style="animation-play-state:paused" ></stop></linearGradient>
<path d="M 0 0 L 0 105.658 Q 136.6 164.183 273.2 121.364 T 546.4 109.441 T 819.6 120.949 T 1092.8 103.691 T 1366 108.264 L 1366 0 Z" fill="url(#lg-0.22746478992126828)" opacity="0.4" style="opacity:0.4;animation-play-state:paused" ></path>
<path d="M 0 0 L 0 118.038 Q 136.6 147.123 273.2 111.072 T 546.4 130.014 T 819.6 119.645 T 1092.8 126.4 T 1366 126.662 L 1366 0 Z" fill="url(#lg-0.22746478992126828)" opacity="0.4" style="opacity:0.4;animation-play-state:paused" ></path>
<path d="M 0 0 L 0 126.859 Q 136.6 153.92 273.2 128.999 T 546.4 124.344 T 819.6 121.097 T 1092.8 123.971 T 1366 120.941 L 1366 0 Z" fill="url(#lg-0.22746478992126828)" opacity="0.4" style="opacity:0.4;animation-play-state:paused" ></path></g></svg>