<?xml version="1.0" encoding="utf-8"?><svg xmlns="http://www.w3.org/2000/svg" xmlns:xlink="http://www.w3.org/1999/xlink" width="1366" height="250" preserveAspectRatio="xMidYMid" viewBox="0 0 1366 250" style="z-index:1;margin-right:-2px;display:block;background-repeat-y:initial;background-repeat-x:initial;animation-play-state:paused" ><g transform="translate(683,125) scale(1,1) translate(-683,-125)" style="transform:matrix(1, 0, 0, 1, 0, 0);animation-play-state:paused" ><linearGradient id="lg-0.061524052426618514" x1="0" x2="1" y1="0" y2="0" style="animation-play-state:paused" ><stop stop-color="#689cc5" offset="0" style="animation-play-state:paused" ></stop>

  
<stop stop-color="#689cc5" offset="1" style="animation-play-state:paused" ></stop></linearGradient>
<path d="M 0 0 L 0 113.716 Q 136.6 129.133 273.2 110.314 T 546.4 131.191 T 819.6 125.038 T 1092.8 117.927 T 1366 121.306 L 1366 0 Z" fill="url(#lg-0.061524052426618514)" opacity="0.4" style="opacity:0.4;animation-play-state:paused" ></path>
<path d="M 0 0 L 0 132.438 Q 136.6 129.698 273.2 102.92 T 546.4 110.073 T 819.6 131.342 T 1092.8 98.906 T 1366 122.889 L 1366 0 Z" fill="url(#lg-0.061524052426618514)" opacity="0.4" style="opacity:0.4;animation-play-state:paused" ></path>
<path d="M 0 0 L 0 114.628 Q 136.6 146.541 273.2 108.271 T 546.4 127.734 T 819.6 118.127 T 1092.8 115.095 T 1366 131.497 L 1366 0 Z" fill="url(#lg-0.061524052426618514)" opacity="0.4" style="opacity:0.4;animation-play-state:paused" ></path></g></svg>