<?xml version="1.0" encoding="utf-8"?><svg xmlns="http://www.w3.org/2000/svg" xmlns:xlink="http://www.w3.org/1999/xlink" width="576" height="250" preserveAspectRatio="xMidYMid" viewBox="0 0 576 250" style="z-index:1;margin-right:-2px;display:block;background-repeat-y:initial;background-repeat-x:initial;animation-play-state:paused" ><g transform="translate(288,125) scale(1,-1) translate(-288,-125)" style="transform:matrix(1, 0, 0, -1, 0, 250);animation-play-state:paused" ><linearGradient id="lg-0.5625851877125505" x1="0" x2="1" y1="0" y2="0" style="animation-play-state:paused" ><stop stop-color="#5e6fa3" offset="0" style="animation-play-state:paused" ></stop>

  
<stop stop-color="#5e6fa3" offset="1" style="animation-play-state:paused" ></stop></linearGradient>
<path d="M 0 0 L 0 129.806 Q 72 149.183 144 131.04 T 288 125.105 T 432 120.836 T 576 119.937 L 576 0 Z" fill="url(#lg-0.5625851877125505)" opacity="0.4" style="opacity:0.4;animation-play-state:paused" ></path>
<path d="M 0 0 L 0 129.225 Q 72 167.991 144 132.906 T 288 125.567 T 432 114.364 T 576 119.332 L 576 0 Z" fill="url(#lg-0.5625851877125505)" opacity="0.4" style="opacity:0.4;animation-play-state:paused" ></path>
<path d="M 0 0 L 0 133.424 Q 72 128.665 144 114.382 T 288 127.278 T 432 135.196 T 576 128.888 L 576 0 Z" fill="url(#lg-0.5625851877125505)" opacity="0.4" style="opacity:0.4;animation-play-state:paused" ></path></g></svg>