<svg id="Layer_1" enable-background="new 0 0 64 64" height="512" viewBox="0 0 64 64" width="512" xmlns="http://www.w3.org/2000/svg"><g id="Flat"><path d="m48 43v-3.9c0-1.4-.5-2.7-1.5-3.6-1-1-1.5-2.3-1.5-3.6v-13.9c0-7.7-4-15-13-15s-13 7.3-13 15v13.9c0 1.4-.5 2.7-1.5 3.6-1 1-1.5 2.3-1.5 3.6v3.9z" fill="#42210b"/><path d="m10 61v-11.3c0-3.4 2.1-6.4 5.3-7.5l9-3.2c1.6-.6 2.7-2.1 2.7-3.8v-6.2h10v6.2c0 1.7 1.1 3.2 2.7 3.8l9 3.2c3.2 1.1 5.3 4.2 5.3 7.5v11.3z" fill="#f4cda5"/><path d="m22 18h20c1.7 0 3 1.3 3 3 0 1.7-1.3 3-3 3h-20c-1.7 0-3-1.3-3-3 0-1.7 1.3-3 3-3z" fill="#f4cda5"/><path d="m32 34c-3.3 0-10-4.2-10-10.4v-6.9c10-1 13.3-5.8 13.3-5.8 1.8 2.4 4.1 4.3 6.7 5.8v6.9c0 6.2-6.7 10.4-10 10.4z" fill="#fadcb4"/><circle cx="26.5" cy="20.5" fill="#42210b" r="1.5"/><circle cx="37.5" cy="20.5" fill="#42210b" r="1.5"/><path d="m24 41v20h16v-21c0 2.8-3.6 5-8 5s-8-2.2-8-5z" fill="#e6e6e6"/><path d="m25.006 38.656-.006 22.344h-15v-11.3c0-3.4 2.1-6.4 5.3-7.5l9-3.2c.3-.1.506-.144.706-.344z" fill="#36474f"/><path d="m54 49.7v11.3h-15l-.006-22.306c.2.1.782.276 1.118.347l8.588 3.059c3.2 1.1 5.3 4.2 5.3 7.6z" fill="#36474f"/><path d="m25.006 38.656v18.338l-6-6 3-4-3-3 4.847-4.835s.831-.29 1.153-.503z" fill="#253238"/><path d="m42 47 3 4-6 6-.018-18.347c.6.218 1.129.388 1.129.388l4.889 4.959z" fill="#253238"/><path d="m42 24c-8-.1-10-2-10-2s-2 1.9-10 2c.2 6 6.7 10 10 10s9.8-4 10-10z" fill="#64b5f6"/></g></svg>